<svg xmlns="http://www.w3.org/2000/svg" viewBox="0 0 100 125" x="0px" y="0px"><g data-name="Layer 2"><path d="M90.47,45.52A4.25,4.25,0,0,0,86,50V72.51H32a3.37,3.37,0,0,0-2.25.45L14,82.4V23H36.49A4.25,4.25,0,0,0,41,18.53a4.25,4.25,0,0,0-4.5-4.5H9.5A4.25,4.25,0,0,0,5,18.53v72a4.73,4.73,0,0,0,2.25,4A4.06,4.06,0,0,0,9.5,95a3.37,3.37,0,0,0,2.25-.45l21.59-13H90.47A4.24,4.24,0,0,0,95,77V50A4.25,4.25,0,0,0,90.47,45.52Z"/><path d="M32,63.51H50.43l40-36c5.85-4.95,6.3-13.49.9-18.44a13.72,13.72,0,0,0-9.45-4,12.62,12.62,0,0,0-8.54,3.15L32,45.52Zm9-13.94L79.23,14.93a6.31,6.31,0,0,1,2.69-.9,4.09,4.09,0,0,1,3.15,1.35,3.31,3.31,0,0,1,.9,2.7,3,3,0,0,1-1.35,2.69h0L47.29,54.51H41Z"/></g><text x="0" y="115" fill="#000000" font-size="5px" font-weight="bold" font-family="'Helvetica Neue', Helvetica, Arial-Unicode, Arial, Sans-serif">Created by James Tyson</text><text x="0" y="120" fill="#000000" font-size="5px" font-weight="bold" font-family="'Helvetica Neue', Helvetica, Arial-Unicode, Arial, Sans-serif">from the Noun Project</text></svg>